<svg xmlns="http://www.w3.org/2000/svg" data-name="Layer 1" viewBox="0 0 168 168" id="cab"><path fill="#fff" d="M10.69529 22.33629a3 3 0 1 0-3-3A3.00344 3.00344 0 0 0 10.69529 22.33629zm0-4.5a1.5 1.5 0 1 1-1.5 1.5A1.50148 1.50148 0 0 1 10.69529 17.83629zM158.30471 71.53841a2 2 0 1 0 2 2A2.00229 2.00229 0 0 0 158.30471 71.53841zm0 3a1 1 0 1 1 1-1A1.001 1.001 0 0 1 158.30471 74.53841zM125.99969 45.53841a2 2 0 1 0 2 2A2.00229 2.00229 0 0 0 125.99969 45.53841zm0 3a1 1 0 1 1 1-1A1.001 1.001 0 0 1 125.99969 48.53841zM158.30471 12.53841a2 2 0 1 0 2 2A2.00229 2.00229 0 0 0 158.30471 12.53841zm0 3a1 1 0 1 1 1-1A1.001 1.001 0 0 1 158.30471 15.53841zM37.67 41.53841a2 2 0 1 0-2 2A2.00229 2.00229 0 0 0 37.67 41.53841zm-3 0a1 1 0 1 1 1 1A1.001 1.001 0 0 1 34.67 41.53841z"></path><polygon fill="#fff" points="10.888 71.55 12.375 69.594 11.436 69.062 10.481 71.252 10.45 71.252 9.48 69.078 8.525 69.625 9.996 71.534 9.996 71.566 7.695 71.268 7.695 72.332 10.011 72.035 10.011 72.066 8.525 73.975 9.416 74.538 10.434 72.332 10.465 72.332 11.404 74.522 12.39 73.959 10.888 72.082 10.888 72.05 13.25 72.332 13.25 71.268 10.888 71.581 10.888 71.55"></polygon><polygon fill="#fff" points="70.846 6.192 69.99 7.291 70.504 7.615 71.09 6.345 71.108 6.345 71.648 7.606 72.216 7.282 71.351 6.2 71.351 6.182 72.711 6.345 72.711 5.732 71.351 5.912 71.351 5.894 72.207 4.768 71.667 4.462 71.117 5.723 71.099 5.723 70.541 4.47 69.99 4.786 70.838 5.885 70.838 5.903 69.513 5.732 69.513 6.345 70.846 6.174 70.846 6.192"></polygon><polygon fill="#000" points="155.305 50.252 155.305 49.208 152.988 49.515 152.988 49.485 154.446 47.566 153.525 47.045 152.589 49.193 152.558 49.193 151.607 47.06 150.67 47.597 152.113 49.47 152.113 49.5 149.856 49.208 149.856 50.252 152.128 49.961 152.128 49.991 150.67 51.863 151.545 52.416 152.543 50.252 152.573 50.252 153.494 52.4 154.461 51.848 152.988 50.006 152.988 49.976 155.305 50.252"></polygon><polygon fill="#000" points="101.555 24.441 102.813 22.786 102.019 22.336 101.211 24.189 101.185 24.189 100.364 22.349 99.556 22.813 100.801 24.428 100.801 24.454 98.854 24.203 98.854 25.103 100.814 24.852 100.814 24.878 99.556 26.493 100.31 26.97 101.172 25.103 101.197 25.103 101.992 26.956 102.826 26.48 101.555 24.891 101.555 24.865 103.554 25.103 103.554 24.203 101.555 24.467 101.555 24.441"></polygon><path fill="#000" d="M118.15387 153.53841h-8.30774a2.00641 2.00641 0 0 0 0 4h8.30774a2.00641 2.00641 0 0 0 0-4zM58.15387 153.53841H49.84613a2.00641 2.00641 0 0 0 0 4h8.30774a2.00641 2.00641 0 0 0 0-4zM104 153.53841H64a2 2 0 0 0 0 4H79.94v2H72a2 2 0 0 0 0 4H97a2 2 0 0 0 0-4H88.06v-2H104a2 2 0 0 0 0-4z"></path><path fill="#000" d="M118.15387 153.53841h-8.30774a2.00641 2.00641 0 0 0 0 4h8.30774a2.00641 2.00641 0 0 0 0-4zM58.15387 153.53841H49.84613a2.00641 2.00641 0 0 0 0 4h8.30774a2.00641 2.00641 0 0 0 0-4zM104 153.53841H64a2 2 0 0 0 0 4H79.94v2H72a2 2 0 0 0 0 4H97a2 2 0 0 0 0-4H88.06v-2H104a2 2 0 0 0 0-4zM40.00031 125.53841H34.00037a2 2 0 1 0 0 4h5.99994a2 2 0 0 0 0-4zM127.99969 129.53841h5.99994a2 2 0 0 0 0-4h-5.99994a2 2 0 1 0 0 4z"></path><path fill="#fff" d="M11 145.53841H8a2 2 0 0 0 0 4h3a2 2 0 0 0 0-4zM160 145.53841h-3a2 2 0 0 0 0 4h3a2 2 0 0 0 0-4z"></path><path fill="#fff" d="M150.72,145.53841H138.67a5.82115,5.82115,0,0,0,.33-1.92v-6.08h2.57a2.009,2.009,0,0,0,1.81-1.15c.15-.33,3.8-8.27,4.59-27.18a36.64554,36.64554,0,0,0-10.68-27.67H146a2.00591,2.00591,0,0,0,2-2,10.01648,10.01648,0,0,0-10-10h-4a4.91911,4.91911,0,0,0-2.85.92,116.4745,116.4745,0,0,0-6.96-12.93,13.39,13.39,0,0,0-11.27-5.99H55.08a13.39,13.39,0,0,0-11.27,5.99,116.47451,116.47451,0,0,0-6.96,12.93,4.91911,4.91911,0,0,0-2.85-.92H30a10.01648,10.01648,0,0,0-10,10,2.00591,2.00591,0,0,0,2,2h8.71a36.64554,36.64554,0,0,0-10.68,27.67c.79,18.91,4.43994,26.85,4.59,27.18a2.009,2.009,0,0,0,1.81,1.15H29v6.08a5.82115,5.82115,0,0,0,.33,1.92H17.28a2.0172,2.0172,0,1,0,0,4H150.72a2.0172,2.0172,0,1,0,0-4Zm-16.72-72h4a6.01331,6.01331,0,0,1,5.66,4h-9.31l-1.31-3.28A.999.999,0,0,1,134,73.53841Zm-86.84-13.82a9.38673,9.38673,0,0,1,7.92-4.18h57.84a9.38673,9.38673,0,0,1,7.92,4.18,129.99692,129.99692,0,0,1,9.49,18.82H37.67A129.99692,129.99692,0,0,1,47.16,59.7184ZM24.34,77.53841a6.01331,6.01331,0,0,1,5.66-4h4a.999.999,0,0,1,.96.72l-1.31,3.28Zm11.21,5h96.9a32.30948,32.30948,0,0,1,10.58,17H24.97A32.32476,32.32476,0,0,1,35.55,82.53841Zm-11.26,31c-.1-1.42-.19-2.91-.25995-4.5a35.11064,35.11064,0,0,1,.21-5.5H143.76a35.11064,35.11064,0,0,1,.21,5.5c-.06995,1.59-.16,3.08-.25995,4.5Zm3.5,20a71.762,71.762,0,0,1-3.15-16H143.36a72.39811,72.39811,0,0,1-3.16,16H120.92l-2.45-2.42a1.992,1.992,0,0,0-1.4-.58H50.93a1.992,1.992,0,0,0-1.4.58l-2.45,2.42Zm15.21,10.08a1.92048,1.92048,0,0,1-1.92,1.92H34.92a1.92048,1.92048,0,0,1-1.92-1.92v-6.08H43Zm3.67,1.92a5.82115,5.82115,0,0,0,.33-1.92v-6.08h.91a1.99222,1.99222,0,0,0,1.4-.58l2.45-2.42h64.48l2.45,2.42a1.99223,1.99223,0,0,0,1.4.58H121v6.08a5.82115,5.82115,0,0,0,.33,1.92Zm88.33-1.92a1.92048,1.92048,0,0,1-1.92,1.92h-6.16a1.92048,1.92048,0,0,1-1.92-1.92v-6.08h10Z"></path><path fill="#fff" d="M101.77,51.53841H97.35l-1.35-2.85a2.00906,2.00906,0,0,0-1.81-1.15H73.81a2.00906,2.00906,0,0,0-1.81,1.15l-1.35,2.85H66.23l2.15-4.56a6.03509,6.03509,0,0,1,5.43-3.44H94.19a6.03509,6.03509,0,0,1,5.43,3.44Z"></path></svg>