<svg xmlns="http://www.w3.org/2000/svg" viewBox="0 0 96 96" id="papers"><path d="M91.3,0H40.37a1,1,0,0,0-1,1V8.25L15.46,10.88a1,1,0,0,0-.89,1.1l2,18.27L4.26,36.33a1,1,0,0,0-.46,1.34L21.3,73.13l.9,8.18a1,1,0,0,0,1.1.88l2.34-.26,4.21,8.53a1,1,0,0,0,.58.51c15.76,5.33,14.75,5.06,15.11,5,.12,0-1.74.88,36.14-17.81a1,1,0,0,0,.45-1.34l-2.46-5H91.3a1,1,0,0,0,1-1V1A1,1,0,0,0,91.3,0ZM6,37.68l10.77-5.32L20.66,67.3ZM24.7,80l-.62.07L16.67,12.76,65.31,7.41c3.1,28.28,2.38,21.57,4.32,39.3H63.35a1,1,0,0,0,0,2h6.5c2,17.75,2.05,18.78,2.86,26C7,82,29.54,79.48,24.7,80ZM45.77,93.62,41.4,84.77a1,1,0,0,0-1.34-.46l-8.85,4.37-3.45-7,46.17-5.07a1,1,0,0,0,.88-1.11c-.89-8.06-.4-3.61-1.28-11.66,6.48,13.12.4.82,6.37,12.91Zm-2.42-.38-10-3.39,6.69-3.3ZM90.3,69.79H78.68L72.89,58.05l-1-9.34h8.57a1,1,0,0,0,0-2H71.64L71,40.51h9.47a1,1,0,0,0,0-2H70.74L69.16,24.1H80.43a1,1,0,0,0,0-2H68.94L67.19,6.2a1,1,0,0,0-1.11-.89L41.37,8V2H90.3Z"></path><path d="M80.43 30.31H75.05a1 1 0 100 2h5.38a1 1 0 000-2zM71.89 15.9h8.54a1 1 0 000-2H71.89a1 1 0 000 2zM27.89 25.46c.14 0 13-1.42 15.72-1.72a1 1 0 00-.22-2L27.78 23.47a1 1 0 00.11 2zM28.68 31.62a1 1 0 00.1 2c.33 0 29.57-3.31 30.42-3.31l-.41-.82a1 1 0 00-.44-.89C57.9 28.29 60.52 28.11 28.68 31.62zM49.65 37.57a1 1 0 00.11 2c.17 0 9.05-1 9.28-1.05a1 1 0 00-.46-1.93zM30.47 47.93a1 1 0 00.11 2c.16 0-.69.1 29.12-3.19a1 1 0 00-.22-2zM31.59 58.07l6.89-.76a1 1 0 00.89-.9v-.2a1 1 0 00-1.11-.88l-6.89.75a1 1 0 00-.89 1.11A1 1 0 0031.59 58.07zM44.3 62.91c-4.8.52-3.4.37-12 1.33a1 1 0 00-.88 1.1 1 1 0 001 .89c.2 0 12.05-1.32 12.15-1.33a1 1 0 00.88-1.1A1 1 0 0044.3 62.91zM43.4 54.76a1 1 0 00.11 2c.17 0-1.29.15 17.09-1.87a1 1 0 00-.22-2zM44.3 40.17a1 1 0 00-.22-2l-14.2 1.56a1 1 0 00.11 2C30.09 41.74 33.17 41.39 44.3 40.17zM48.41 23.2c.2 0 8.5-.93 8.6-.94a1 1 0 10-.22-2c-5.09.55-1.08.13-8.49.93a1 1 0 00.11 2z"></path></svg>